<mxfile host="app.diagrams.net" modified="2023-04-23T08:40:26.073Z" agent="Mozilla/5.0 (Windows NT 10.0; Win64; x64) AppleWebKit/537.36 (KHTML, like Gecko) Chrome/112.0.0.0 Safari/537.36" etag="1SziQ4EvYNlhmNTuMA0y" version="21.2.1" type="github">
  <diagram name="페이지-1" id="DHGp8PG6kJby22xJm2w-">
    <mxGraphModel dx="1434" dy="796" grid="1" gridSize="10" guides="1" tooltips="1" connect="1" arrows="1" fold="1" page="1" pageScale="1" pageWidth="827" pageHeight="1169" math="0" shadow="0">
      <root>
        <mxCell id="0" />
        <mxCell id="1" parent="0" />
        <mxCell id="yab74-oy9zMKlWfnZYb8-59" value="" style="rounded=0;whiteSpace=wrap;html=1;" vertex="1" parent="1">
          <mxGeometry x="500" y="260" width="160" height="460" as="geometry" />
        </mxCell>
        <mxCell id="yab74-oy9zMKlWfnZYb8-52" value="" style="rounded=0;whiteSpace=wrap;html=1;" vertex="1" parent="1">
          <mxGeometry x="220" y="260" width="160" height="220" as="geometry" />
        </mxCell>
        <mxCell id="yab74-oy9zMKlWfnZYb8-2" value="Actor" style="shape=umlActor;verticalLabelPosition=bottom;verticalAlign=top;html=1;outlineConnect=0;" vertex="1" parent="1">
          <mxGeometry x="40" y="40" width="30" height="60" as="geometry" />
        </mxCell>
        <mxCell id="yab74-oy9zMKlWfnZYb8-8" value="과목" style="rounded=0;whiteSpace=wrap;html=1;" vertex="1" parent="1">
          <mxGeometry x="520" y="40" width="120" height="60" as="geometry" />
        </mxCell>
        <mxCell id="yab74-oy9zMKlWfnZYb8-10" value="단원별 문항 수" style="rounded=0;whiteSpace=wrap;html=1;" vertex="1" parent="1">
          <mxGeometry x="520" y="160" width="120" height="60" as="geometry" />
        </mxCell>
        <mxCell id="yab74-oy9zMKlWfnZYb8-13" value="문항ID" style="rounded=0;whiteSpace=wrap;html=1;" vertex="1" parent="1">
          <mxGeometry x="520" y="400" width="120" height="60" as="geometry" />
        </mxCell>
        <mxCell id="yab74-oy9zMKlWfnZYb8-14" value="문항 메타" style="rounded=0;whiteSpace=wrap;html=1;" vertex="1" parent="1">
          <mxGeometry x="520" y="520" width="120" height="60" as="geometry" />
        </mxCell>
        <mxCell id="yab74-oy9zMKlWfnZYb8-15" value="단원" style="rounded=0;whiteSpace=wrap;html=1;" vertex="1" parent="1">
          <mxGeometry x="520" y="280" width="120" height="60" as="geometry" />
        </mxCell>
        <mxCell id="yab74-oy9zMKlWfnZYb8-16" value="문항 HTML" style="rounded=0;whiteSpace=wrap;html=1;" vertex="1" parent="1">
          <mxGeometry x="520" y="640" width="120" height="60" as="geometry" />
        </mxCell>
        <mxCell id="yab74-oy9zMKlWfnZYb8-25" value="과목" style="ellipse;whiteSpace=wrap;html=1;" vertex="1" parent="1">
          <mxGeometry x="240" y="150" width="120" height="80" as="geometry" />
        </mxCell>
        <mxCell id="yab74-oy9zMKlWfnZYb8-26" value="단원" style="ellipse;whiteSpace=wrap;html=1;" vertex="1" parent="1">
          <mxGeometry x="240" y="270" width="120" height="80" as="geometry" />
        </mxCell>
        <mxCell id="yab74-oy9zMKlWfnZYb8-28" value="문항메타" style="ellipse;whiteSpace=wrap;html=1;" vertex="1" parent="1">
          <mxGeometry x="240" y="390" width="120" height="80" as="geometry" />
        </mxCell>
        <mxCell id="yab74-oy9zMKlWfnZYb8-29" value="문항ID List" style="ellipse;whiteSpace=wrap;html=1;" vertex="1" parent="1">
          <mxGeometry x="240" y="510" width="120" height="80" as="geometry" />
        </mxCell>
        <mxCell id="yab74-oy9zMKlWfnZYb8-30" value="시험지ID" style="ellipse;whiteSpace=wrap;html=1;" vertex="1" parent="1">
          <mxGeometry x="240" y="630" width="120" height="80" as="geometry" />
        </mxCell>
        <mxCell id="yab74-oy9zMKlWfnZYb8-32" value="" style="endArrow=none;html=1;rounded=0;entryX=0;entryY=0.5;entryDx=0;entryDy=0;exitX=0.5;exitY=0.5;exitDx=0;exitDy=0;exitPerimeter=0;" edge="1" parent="1" source="yab74-oy9zMKlWfnZYb8-2" target="yab74-oy9zMKlWfnZYb8-8">
          <mxGeometry width="50" height="50" relative="1" as="geometry">
            <mxPoint x="80" y="80" as="sourcePoint" />
            <mxPoint x="610" y="60" as="targetPoint" />
          </mxGeometry>
        </mxCell>
        <mxCell id="yab74-oy9zMKlWfnZYb8-33" value="Actor" style="shape=umlActor;verticalLabelPosition=bottom;verticalAlign=top;html=1;outlineConnect=0;" vertex="1" parent="1">
          <mxGeometry x="40" y="160" width="30" height="60" as="geometry" />
        </mxCell>
        <mxCell id="yab74-oy9zMKlWfnZYb8-34" value="" style="endArrow=none;html=1;rounded=0;exitX=0.5;exitY=0.5;exitDx=0;exitDy=0;exitPerimeter=0;entryX=0;entryY=0.5;entryDx=0;entryDy=0;" edge="1" parent="1" source="yab74-oy9zMKlWfnZYb8-33" target="yab74-oy9zMKlWfnZYb8-25">
          <mxGeometry width="50" height="50" relative="1" as="geometry">
            <mxPoint x="560" y="310" as="sourcePoint" />
            <mxPoint x="610" y="260" as="targetPoint" />
          </mxGeometry>
        </mxCell>
        <mxCell id="yab74-oy9zMKlWfnZYb8-35" value="" style="endArrow=none;html=1;rounded=0;exitX=1;exitY=0.5;exitDx=0;exitDy=0;entryX=0;entryY=0.5;entryDx=0;entryDy=0;" edge="1" parent="1" source="yab74-oy9zMKlWfnZYb8-25" target="yab74-oy9zMKlWfnZYb8-15">
          <mxGeometry width="50" height="50" relative="1" as="geometry">
            <mxPoint x="560" y="310" as="sourcePoint" />
            <mxPoint x="610" y="260" as="targetPoint" />
          </mxGeometry>
        </mxCell>
        <mxCell id="yab74-oy9zMKlWfnZYb8-36" value="" style="endArrow=none;html=1;rounded=0;exitX=1;exitY=0.5;exitDx=0;exitDy=0;entryX=0;entryY=0.5;entryDx=0;entryDy=0;" edge="1" parent="1" source="yab74-oy9zMKlWfnZYb8-25" target="yab74-oy9zMKlWfnZYb8-8">
          <mxGeometry width="50" height="50" relative="1" as="geometry">
            <mxPoint x="560" y="310" as="sourcePoint" />
            <mxPoint x="610" y="260" as="targetPoint" />
          </mxGeometry>
        </mxCell>
        <mxCell id="yab74-oy9zMKlWfnZYb8-37" value="Actor" style="shape=umlActor;verticalLabelPosition=bottom;verticalAlign=top;html=1;outlineConnect=0;" vertex="1" parent="1">
          <mxGeometry x="40" y="280" width="30" height="60" as="geometry" />
        </mxCell>
        <mxCell id="yab74-oy9zMKlWfnZYb8-39" value="" style="endArrow=none;html=1;rounded=0;exitX=0.5;exitY=0.5;exitDx=0;exitDy=0;exitPerimeter=0;entryX=0;entryY=0.5;entryDx=0;entryDy=0;" edge="1" parent="1" source="yab74-oy9zMKlWfnZYb8-37" target="yab74-oy9zMKlWfnZYb8-26">
          <mxGeometry width="50" height="50" relative="1" as="geometry">
            <mxPoint x="560" y="-30" as="sourcePoint" />
            <mxPoint x="240" y="-50" as="targetPoint" />
          </mxGeometry>
        </mxCell>
        <mxCell id="yab74-oy9zMKlWfnZYb8-41" value="" style="endArrow=none;html=1;rounded=0;entryX=0;entryY=0.5;entryDx=0;entryDy=0;exitX=1;exitY=0.5;exitDx=0;exitDy=0;" edge="1" parent="1" source="yab74-oy9zMKlWfnZYb8-26" target="yab74-oy9zMKlWfnZYb8-10">
          <mxGeometry width="50" height="50" relative="1" as="geometry">
            <mxPoint x="360" y="-50" as="sourcePoint" />
            <mxPoint x="610" y="-80" as="targetPoint" />
          </mxGeometry>
        </mxCell>
        <mxCell id="yab74-oy9zMKlWfnZYb8-42" value="Actor" style="shape=umlActor;verticalLabelPosition=bottom;verticalAlign=top;html=1;outlineConnect=0;" vertex="1" parent="1">
          <mxGeometry x="40" y="400" width="30" height="60" as="geometry" />
        </mxCell>
        <mxCell id="yab74-oy9zMKlWfnZYb8-49" value="" style="endArrow=none;html=1;rounded=0;exitX=0.5;exitY=0.5;exitDx=0;exitDy=0;exitPerimeter=0;entryX=0;entryY=0.5;entryDx=0;entryDy=0;" edge="1" parent="1" source="yab74-oy9zMKlWfnZYb8-42" target="yab74-oy9zMKlWfnZYb8-52">
          <mxGeometry width="50" height="50" relative="1" as="geometry">
            <mxPoint x="560" y="310" as="sourcePoint" />
            <mxPoint x="610" y="260" as="targetPoint" />
          </mxGeometry>
        </mxCell>
        <mxCell id="yab74-oy9zMKlWfnZYb8-61" value="Actor" style="shape=umlActor;verticalLabelPosition=bottom;verticalAlign=top;html=1;outlineConnect=0;" vertex="1" parent="1">
          <mxGeometry x="40" y="520" width="30" height="60" as="geometry" />
        </mxCell>
        <mxCell id="yab74-oy9zMKlWfnZYb8-62" value="" style="endArrow=none;html=1;rounded=0;exitX=0.5;exitY=0.5;exitDx=0;exitDy=0;exitPerimeter=0;entryX=0;entryY=0.5;entryDx=0;entryDy=0;" edge="1" parent="1" source="yab74-oy9zMKlWfnZYb8-61" target="yab74-oy9zMKlWfnZYb8-29">
          <mxGeometry width="50" height="50" relative="1" as="geometry">
            <mxPoint x="140" y="610" as="sourcePoint" />
            <mxPoint x="190" y="560" as="targetPoint" />
          </mxGeometry>
        </mxCell>
        <mxCell id="yab74-oy9zMKlWfnZYb8-63" value="" style="endArrow=none;html=1;rounded=0;exitX=1;exitY=0.5;exitDx=0;exitDy=0;entryX=0;entryY=0.5;entryDx=0;entryDy=0;" edge="1" parent="1" source="yab74-oy9zMKlWfnZYb8-29" target="yab74-oy9zMKlWfnZYb8-59">
          <mxGeometry width="50" height="50" relative="1" as="geometry">
            <mxPoint x="560" y="410" as="sourcePoint" />
            <mxPoint x="460" y="390" as="targetPoint" />
          </mxGeometry>
        </mxCell>
        <mxCell id="yab74-oy9zMKlWfnZYb8-64" value="" style="endArrow=none;html=1;rounded=0;exitX=0;exitY=0.5;exitDx=0;exitDy=0;entryX=0.5;entryY=0.5;entryDx=0;entryDy=0;entryPerimeter=0;" edge="1" parent="1" source="yab74-oy9zMKlWfnZYb8-30" target="yab74-oy9zMKlWfnZYb8-65">
          <mxGeometry width="50" height="50" relative="1" as="geometry">
            <mxPoint x="570" y="830" as="sourcePoint" />
            <mxPoint x="610" y="460" as="targetPoint" />
          </mxGeometry>
        </mxCell>
        <mxCell id="yab74-oy9zMKlWfnZYb8-65" value="Actor" style="shape=umlActor;verticalLabelPosition=bottom;verticalAlign=top;html=1;outlineConnect=0;" vertex="1" parent="1">
          <mxGeometry x="40" y="640" width="30" height="60" as="geometry" />
        </mxCell>
        <mxCell id="yab74-oy9zMKlWfnZYb8-66" value="" style="endArrow=none;html=1;rounded=0;exitX=1;exitY=0.5;exitDx=0;exitDy=0;entryX=0;entryY=0.5;entryDx=0;entryDy=0;" edge="1" parent="1" source="yab74-oy9zMKlWfnZYb8-30" target="yab74-oy9zMKlWfnZYb8-59">
          <mxGeometry width="50" height="50" relative="1" as="geometry">
            <mxPoint x="560" y="510" as="sourcePoint" />
            <mxPoint x="720" y="530" as="targetPoint" />
          </mxGeometry>
        </mxCell>
        <mxCell id="yab74-oy9zMKlWfnZYb8-70" value="" style="endArrow=none;html=1;rounded=0;exitX=1;exitY=0.5;exitDx=0;exitDy=0;entryX=0;entryY=0.5;entryDx=0;entryDy=0;" edge="1" parent="1" source="yab74-oy9zMKlWfnZYb8-52" target="yab74-oy9zMKlWfnZYb8-59">
          <mxGeometry width="50" height="50" relative="1" as="geometry">
            <mxPoint x="560" y="310" as="sourcePoint" />
            <mxPoint x="610" y="260" as="targetPoint" />
          </mxGeometry>
        </mxCell>
      </root>
    </mxGraphModel>
  </diagram>
</mxfile>
